<?xml version="1.0" standalone="no"?>
<!DOCTYPE svg PUBLIC "-//W3C//DTD SVG 20010904//EN"
 "http://www.w3.org/TR/2001/REC-SVG-20010904/DTD/svg10.dtd">
<svg version="1.0" xmlns="http://www.w3.org/2000/svg"
 width="260.000000pt" height="260.000000pt" viewBox="0 0 260.000000 260.000000"
 preserveAspectRatio="xMidYMid meet">
<metadata>
Created by potrace 1.14, written by Peter Selinger 2001-2017
</metadata>
<g transform="translate(0.000000,260.000000) scale(0.100000,-0.100000)"
fill="#1d8fbd" stroke="none">
<path d="M1155 2290 c-3 -5 -26 -10 -51 -10 -24 0 -52 -4 -62 -9 -9 -5 -37
-14 -62 -21 -60 -16 -182 -75 -250 -120 -73 -50 -217 -194 -264 -264 -49 -74
-116 -206 -116 -229 0 -10 -5 -28 -12 -40 -20 -37 -47 -200 -50 -297 -5 -194
88 -472 240 -715 56 -91 158 -225 169 -225 20 0 159 79 221 126 40 30 79 54
87 54 8 0 35 -25 61 -55 26 -30 73 -73 105 -95 32 -22 67 -52 77 -65 11 -14
24 -25 29 -25 6 0 34 24 64 53 30 28 72 68 95 87 22 19 54 53 71 74 31 38 33
39 56 23 13 -8 31 -22 38 -29 55 -51 245 -152 264 -140 16 9 72 82 143 187 56
82 182 331 182 358 0 9 4 18 9 21 4 3 11 20 14 38 4 18 16 73 27 122 11 50 20
109 20 133 0 24 5 52 12 63 9 14 9 25 1 42 -6 13 -14 55 -17 93 -9 130 -107
371 -194 480 -58 74 -160 171 -228 217 -75 51 -207 118 -233 118 -11 0 -23 5
-26 10 -3 6 -19 10 -35 10 -16 0 -32 5 -35 10 -3 6 -28 10 -55 10 -27 0 -52 5
-55 10 -4 6 -55 10 -120 10 -65 0 -116 -4 -120 -10z m275 -106 c30 -3 59 -10
65 -15 5 -5 19 -9 31 -9 12 0 35 -6 51 -14 15 -7 55 -26 88 -41 33 -15 71 -32
85 -39 13 -6 40 -27 60 -47 19 -20 54 -48 78 -63 23 -14 42 -30 42 -35 0 -4
17 -28 38 -52 47 -54 123 -188 141 -249 7 -25 17 -54 21 -65 49 -128 35 -441
-26 -583 -8 -18 -14 -41 -14 -52 0 -36 -119 -252 -201 -363 -38 -52 -50 -62
-72 -60 -29 2 -206 111 -207 127 0 5 22 39 48 75 85 118 150 234 188 341 36
101 38 110 41 256 2 120 0 158 -12 180 -8 16 -15 35 -15 43 0 22 -75 147 -122
202 -45 54 -209 169 -240 169 -10 0 -26 4 -36 9 -88 45 -263 40 -407 -11 -76
-27 -220 -128 -251 -176 -16 -25 -42 -66 -58 -91 -35 -56 -75 -165 -76 -206 0
-16 -5 -47 -11 -68 -23 -83 27 -278 117 -453 61 -118 77 -144 138 -218 l40
-48 -25 -20 c-57 -46 -160 -109 -187 -114 -27 -6 -33 -1 -71 52 -22 33 -55 79
-72 104 -41 57 -139 261 -139 288 0 12 -4 23 -9 26 -5 3 -11 18 -14 33 -2 16
-12 55 -22 88 -34 119 -23 436 16 480 5 5 9 21 9 35 0 63 133 277 218 351 71
61 126 104 152 117 14 8 43 23 65 35 52 28 105 47 131 47 11 0 29 7 40 15 10
8 39 15 64 16 25 0 56 5 70 9 25 9 145 6 250 -6z m-33 -372 c12 -7 33 -12 48
-12 40 0 123 -48 191 -112 66 -63 134 -165 134 -203 0 -13 4 -26 10 -30 5 -3
9 -30 9 -60 -1 -29 2 -58 5 -63 7 -12 -9 -164 -23 -221 -7 -24 -24 -69 -38
-100 -55 -115 -184 -311 -206 -311 -7 -1 -51 41 -98 91 l-86 92 37 56 c65 100
143 258 136 276 -2 7 0 31 6 54 11 45 1 100 -28 151 -7 14 -18 37 -25 52 -16
41 -121 88 -196 88 -64 0 -159 -41 -178 -76 -6 -10 -18 -31 -28 -45 -9 -14
-24 -50 -31 -79 -13 -48 -12 -60 8 -139 24 -91 75 -202 132 -282 19 -27 34
-53 34 -57 0 -5 -19 -27 -42 -48 -24 -22 -62 -60 -84 -87 -23 -26 -46 -47 -52
-47 -17 0 -98 103 -145 187 -43 75 -74 147 -107 248 -17 52 -18 301 -2 317 7
7 12 20 12 29 0 31 69 152 107 187 89 81 170 131 215 133 13 0 39 6 58 14 43
16 196 14 227 -3z m-14 -400 l39 -37 -6 -89 c-4 -78 -9 -98 -46 -170 -48 -95
-81 -145 -96 -146 -25 0 -134 207 -134 255 0 13 -4 35 -10 50 -24 63 38 169
104 178 65 9 110 -4 149 -41z m-42 -674 c35 -35 77 -78 93 -96 l29 -33 -89
-90 c-49 -49 -92 -89 -97 -89 -5 0 -50 41 -100 90 l-92 90 95 94 c52 52 95 95
96 95 0 1 30 -27 65 -61z"/>
</g>
</svg>
